<?xml version="1.0" encoding="UTF-8"?>
<svg stroke="#fff" stroke-width="6px" viewBox="0 0 446 344" xmlns="http://www.w3.org/2000/svg">
<polygon points="11 207 71 111 132 99 274 99 348 112 407 207 310 340 118 340" fill="none"/>
<g stroke-width="3px">
<line x1="12" x2="108" y1="207" y2="243"/>
<line x1="408" x2="312" y1="207" y2="243"/>
<line x1="348" x2="312" y1="111" y2="243"/>
<line x1="72" x2="108" y1="111" y2="243"/>
<line x1="72" x2="216" y1="111" y2="123"/>
<line x1="216" x2="348" y1="123" y2="111"/>
<line x1="216" x2="108" y1="123" y2="243"/>
<line x1="216" x2="312" y1="123" y2="243"/>
<line x1="312" x2="276" y1="243" y2="339"/>
<line x1="108" x2="156" y1="243" y2="339"/>
<line x1="108" x2="312" y1="243" y2="243"/>
</g>
<line x1="2" x2="418" y1="340" y2="340"/>
<path d="m251 99c0-47 39-96 96-96 44 0 96 36 96 96 0 57-48 85-48 85" fill="none"/>
</svg>