<?xml version="1.0" encoding="utf-8"?>
<svg viewBox="0 0 446 344" xmlns="http://www.w3.org/2000/svg" style="stroke:#fff;stroke-width:6px">
  <polygon style="fill:none" points="11 207 71 111 132 99 274 99 348 112 407 207 310 340 118 340"/>
  <g style="stroke-width:3px">
    <line x1="12" y1="207" x2="108" y2="243"/>
    <line x1="408" y1="207" x2="312" y2="243"/>
    <line x1="348" y1="111" x2="312" y2="243"/>
    <line x1="72" y1="111" x2="108" y2="243"/>
    <line x1="72" y1="111" x2="216" y2="123"/>
    <line x1="216" y1="123" x2="348" y2="111"/>
    <line x1="216" y1="123" x2="108" y2="243"/>
    <line x1="216" y1="123" x2="312" y2="243"/>
    <line x1="312" y1="243" x2="276" y2="339"/>
    <line x1="108" y1="243" x2="156" y2="339"/>
    <line x1="108" y1="243" x2="312" y2="243"/>
  </g>
  <line x1="2" y1="340" x2="418" y2="340"/>
  <path style="fill:none" d="M 251 99 C 251.253 52 290 3 347 3 C 391 3 443 39 443 99 C 443 156 395 184 395 184"/>
</svg>
