<?xml version="1.0" encoding="utf-8"?>
<svg viewBox="0 0 1280 55" xmlns="http://www.w3.org/2000/svg">
    <path fill="#095665"
          d="M 600.131 1.388 C 589.621 4.394 577.722 11.609 562.848 24.135 C 559.675 26.741 556.702 28.945 556.304 28.945 C 555.808 28.945 555.213 26.039 555.015 22.532 C 554.321 14.816 551.247 8.503 546.388 5.196 C 540.042 0.787 529.234 2.991 525.367 9.304 C 522.987 13.212 522.987 16.62 525.367 20.227 C 528.442 25.037 531.019 26.24 536.473 25.538 C 539.15 25.137 541.331 25.137 541.331 25.438 C 541.331 25.739 540.637 27.342 539.844 28.845 C 536.175 36.16 526.36 39.968 516.344 38.064 C 507.618 36.461 499.983 33.054 495.124 28.645 C 491.06 24.837 490.464 23.835 490.067 19.325 C 489.571 14.716 489.77 14.014 492.249 12.11 C 495.917 9.204 501.074 9.204 503.156 12.11 C 503.949 13.413 504.941 16.119 505.337 18.223 C 505.933 22.532 506.825 23.334 509.601 22.432 C 511.188 21.931 511.585 20.929 511.585 16.82 C 511.585 11.108 509.799 7 506.031 3.993 C 503.949 2.39 501.966 1.889 497.008 1.889 C 491.257 1.889 490.265 2.19 487.787 4.795 C 486.002 6.599 484.217 10.006 483.225 13.814 C 482.234 17.121 480.945 19.926 480.251 19.926 C 479.656 19.926 473.012 16.82 465.675 13.012 C 442.273 1.087 445.446 1.488 378.218 1.488 C 323.186 1.588 320.311 1.689 311.783 3.693 C 301.371 6.198 290.266 10.006 275.095 16.219 C 264.286 20.728 252.388 23.835 251.099 22.532 C 250.206 21.73 251.892 18.824 253.875 17.722 C 254.669 17.321 256.949 16.319 259.031 15.517 C 262.204 14.215 262.7 13.613 262.7 10.908 C 262.7 8.603 262.105 7.601 260.518 7 C 255.66 5.196 248.025 9.605 240.885 18.323 C 237.117 23.033 236.027 23.734 233.944 23.233 C 229.581 22.231 222.938 19.025 219.864 16.419 C 218.278 15.016 216.195 13.914 215.204 13.914 C 214.212 13.914 211.436 15.918 208.858 18.423 L 204.296 23.033 L 114.757 22.732 C 22.442 22.432 12.031 22.732 3.206 26.54 C -0.265 27.943 -1.058 30.348 1.52 31.35 C 2.412 31.651 41.58 31.951 88.58 31.951 C 135.68 31.951 180.994 32.252 189.423 32.553 L 204.693 33.254 L 208.263 37.062 C 210.246 39.267 212.725 40.97 213.717 40.97 C 214.807 40.97 217.286 39.567 219.269 37.964 C 224.326 33.755 230.771 30.949 235.63 30.949 C 239.497 30.949 239.993 31.35 242.968 35.559 C 252.685 49.889 275.59 48.185 314.857 30.148 C 327.251 24.536 330.622 23.634 337.266 24.536 L 342.026 25.237 L 339.844 28.845 C 335.086 36.461 337.96 49.087 345.001 51.993 C 347.479 53.095 348.768 52.995 352.338 51.592 C 360.469 48.486 362.849 40.67 358.486 31.651 C 357.097 28.645 355.908 25.538 355.908 24.636 C 355.908 22.331 364.237 16.319 370.186 14.315 C 377.325 11.91 388.134 12.812 397.554 16.62 C 406.478 20.327 407.469 22.331 401.322 23.935 C 388.035 27.342 382.68 31.951 382.68 39.968 C 382.68 46.482 389.424 52.995 396.066 52.995 C 401.916 52.995 408.957 47.985 408.263 44.277 C 407.866 42.373 406.081 42.173 397.355 43.475 C 392.893 44.177 392.695 44.077 392.001 41.571 C 391.207 38.064 394.083 33.154 398.545 30.849 C 405.089 27.242 413.42 28.645 434.539 36.561 C 450.108 42.473 472.716 49.187 485.803 51.993 C 519.814 59.008 539.348 53.296 570.583 26.941 C 589.621 10.908 597.157 7.4 610.741 8.202 C 625.516 9.004 634.142 14.916 624.722 17.722 C 619.567 19.325 616.393 22.031 611.832 28.845 C 606.378 36.962 601.52 40.97 597.355 40.97 C 593.587 40.97 592.794 39.768 594.084 35.459 C 595.967 28.845 592.496 23.935 586.15 23.935 C 579.705 23.935 576.036 28.344 576.036 36.16 C 576.135 46.181 583.969 52.995 595.571 52.995 C 602.115 52.995 611.634 50.39 617.386 46.983 L 620.558 45.079 L 628.292 48.586 C 632.556 50.39 637.018 51.993 638.208 51.993 C 639.398 51.993 643.364 50.49 646.934 48.586 L 653.478 45.179 L 660.617 48.285 C 674.202 54.098 689.472 52.995 695.421 45.88 C 701.372 38.766 700.974 28.745 694.727 24.937 C 686.398 19.826 679.16 26.139 681.837 36.16 C 682.829 39.968 682.829 39.968 679.953 39.968 C 675.788 39.968 673.706 38.565 665.079 30.348 C 658.932 24.436 653.28 20.127 645.646 15.317 C 645.446 15.116 645.545 14.114 645.942 12.912 C 646.934 9.805 653.775 6.899 660.518 6.899 C 671.128 6.899 683.324 13.212 705.734 30.348 C 723.483 43.876 727.251 46.081 742.224 51.492 C 750.851 54.699 752.734 54.999 762.353 54.999 C 788.234 54.999 806.874 50.59 855.164 32.954 C 866.568 28.845 873.309 28.444 876.879 31.851 C 879.755 34.657 880.349 39.367 878.069 42.574 C 876.978 44.077 875.392 44.478 870.831 44.478 C 865.972 44.478 865.08 44.778 864.782 46.381 C 864.187 49.388 867.36 50.991 873.408 50.991 C 885.902 50.991 892.05 40.469 885.208 30.649 C 882.73 27.141 878.466 24.937 871.525 23.434 L 866.071 22.331 L 871.029 19.125 C 886.795 8.803 906.626 8.202 917.137 17.722 L 921.401 21.53 L 917.732 25.037 C 915.649 26.941 913.369 29.647 912.576 31.15 C 910.692 34.858 910.791 41.571 912.873 45.079 C 914.56 47.985 919.518 50.991 922.59 50.991 C 924.97 50.991 929.234 48.486 932.01 45.48 C 934.292 42.974 934.489 42.073 934.39 33.855 C 934.192 25.037 934.292 24.937 936.572 24.937 C 940.34 24.937 950.652 28.745 958.288 32.853 C 970.186 39.367 978.416 42.073 991.506 43.976 C 1005.287 45.981 1020.36 41.772 1027.598 34.056 C 1031.763 29.747 1035.53 29.947 1043.959 34.958 C 1047.627 37.162 1051.891 38.966 1053.379 38.966 C 1054.866 38.966 1058.931 37.162 1062.501 35.058 C 1067.558 31.951 1070.435 30.949 1075.59 30.348 C 1079.259 29.947 1124.079 29.847 1175.144 30.148 C 1175.144 30.148 1266.406 30.649 1268.154 30.649 C 1271.799 30.649 1288.088 23.133 1274.202 23.133 C 1272.581 23.133 1226.409 22.432 1175.64 22.432 C 1080.35 22.432 1071.624 22.131 1061.609 18.323 C 1053.676 15.317 1051.296 15.317 1046.933 18.824 C 1041.678 23.133 1036.523 25.237 1033.646 24.235 C 1032.358 23.835 1029.878 21.129 1027.994 18.423 C 1023.631 11.709 1018.972 9.405 1009.75 9.405 C 1002.313 9.405 999.437 10.707 999.437 14.014 C 999.437 15.818 1000.032 15.918 1006.378 15.317 C 1014.113 14.515 1018.278 15.718 1020.756 19.526 C 1022.739 22.732 1022.64 24.636 1020.26 25.438 C 1016.69 26.54 1003.899 24.035 992.496 19.926 C 958.982 7.801 921.401 1.488 881.936 1.488 C 846.339 1.388 829.88 4.494 805.883 16.018 C 796.562 20.427 790.612 22.732 790.017 22.131 C 789.522 21.63 788.728 18.724 788.332 15.617 C 787.935 12.611 786.845 9.004 786.052 7.701 C 783.572 3.893 777.821 1.588 772.566 2.19 C 767.112 2.791 763.543 5.396 761.063 10.407 C 758.882 14.916 759.774 17.221 763.741 17.722 C 765.922 18.022 766.815 17.321 768.5 14.415 C 771.475 9.304 773.557 8.503 776.73 11.008 C 781.193 14.615 781.887 22.933 778.019 28.043 C 776.532 30.048 766.418 36.661 762.75 38.064 C 747.479 43.876 730.92 38.565 728.243 26.841 L 727.549 24.135 L 734.985 24.336 C 744.207 24.436 746.588 22.832 746.588 16.319 C 746.588 11.309 743.116 6.398 737.96 4.294 C 727.152 -0.316 717.137 7.2 715.352 21.43 C 714.955 24.636 714.261 26.941 713.567 26.941 C 712.179 26.941 707.519 23.734 696.512 15.417 C 686.993 8.202 676.879 3.392 667.162 1.288 C 657.841 -0.616 653.775 -0.015 643.661 5.196 L 635.431 9.405 L 632.259 7.501 C 619.864 0.185 610.543 -1.618 600.131 1.388 Z M 359.874 10.306 C 359.874 12.21 358.684 13.413 354.519 15.818 C 348.669 19.225 345.099 19.626 335.68 17.822 C 326.755 16.219 313.567 19.626 287.489 30.549 C 277.871 34.557 274.797 35.359 268.055 35.759 C 263.295 36.06 258.535 35.759 256.453 35.058 C 252.784 33.855 250.107 31.35 251.099 30.248 C 251.495 29.947 256.057 28.645 261.411 27.342 C 266.765 26.039 279.259 22.231 289.076 18.924 C 314.559 10.507 326.954 8.002 345.298 8.002 L 359.874 7.901 L 359.874 10.306 Z M 433.25 9.505 C 446.339 12.01 457.246 16.419 479.062 28.043 C 506.627 42.674 508.213 43.375 518.327 43.175 C 522.79 43.175 527.449 42.774 528.442 42.473 C 531.019 41.672 531.019 43.576 528.442 44.979 C 527.35 45.58 522.888 46.582 518.525 47.183 C 500.578 49.688 482.432 44.778 441.381 26.039 C 430.376 21.029 417.583 15.718 413.121 14.315 C 403.602 11.309 402.313 10.707 401.718 9.104 C 401.123 7.3 423.335 7.601 433.25 9.505 Z M 867.558 9.805 C 867.558 11.008 866.666 12.01 865.377 12.511 C 864.088 12.812 851.495 18.323 837.315 24.636 C 804.495 39.367 799.735 41.271 788.234 44.277 C 775.64 47.684 771.078 48.285 766.418 47.484 C 760.766 46.482 761.46 44.578 768.302 41.972 C 771.574 40.77 777.226 37.964 780.994 35.759 C 796.363 26.64 819.27 15.918 831.366 12.21 C 839.696 9.605 849.71 8.102 858.932 8.002 C 866.864 7.901 867.558 8.102 867.558 9.805 Z M 936.473 9.906 C 948.372 11.409 965.525 15.818 982.779 21.931 C 990.612 24.736 1001.222 27.643 1006.378 28.544 C 1016.89 30.348 1020.062 32.152 1016.791 34.557 C 1014.311 36.461 1008.758 37.964 1004.395 37.964 C 999.141 37.964 991.901 35.86 973.656 28.945 C 955.61 22.131 943.81 18.924 936.671 18.924 C 930.722 18.924 926.061 17.02 923.284 13.413 C 920.112 9.405 920.508 7.901 924.376 8.402 C 926.061 8.703 931.614 9.304 936.473 9.906 Z M 1056.155 24.636 C 1058.437 26.741 1058.437 28.645 1055.957 29.947 C 1053.578 31.25 1049.016 30.248 1049.016 28.344 C 1049.016 26.941 1052.387 22.933 1053.676 22.933 C 1053.974 22.933 1055.163 23.634 1056.155 24.636 Z M 220.558 26.34 C 222.145 27.542 222.244 27.943 221.153 29.346 C 219.467 31.35 214.708 31.45 213.121 29.446 C 210.345 26.039 216.592 23.334 220.558 26.34 Z M 926.558 30.048 C 927.647 33.354 926.16 38.866 923.979 40.068 C 920.607 41.872 919.12 40.469 919.12 35.559 C 919.12 32.052 919.616 30.749 921.301 29.546 C 924.276 27.342 925.764 27.542 926.558 30.048 Z M 350.95 33.054 C 351.545 34.056 351.941 36.461 351.941 38.365 C 351.941 41.471 351.644 41.972 349.562 41.972 C 347.38 41.972 346.983 41.371 346.389 37.463 C 346.091 34.958 345.992 32.352 346.389 31.45 C 347.084 29.647 349.661 30.549 350.95 33.054 Z"/>
</svg>
